<svg xmlns="http://www.w3.org/2000/svg" xmlns:xlink="http://www.w3.org/1999/xlink" width="500" zoomAndPan="magnify" viewBox="0 0 375 374.999991" height="500" preserveAspectRatio="xMidYMid meet" version="1.0"><defs><clipPath id="0091ff07da"><path d="M 61.417969 37.5 L 337.417969 37.5 L 337.417969 313.5 L 61.417969 313.5 Z M 61.417969 37.5 " clip-rule="nonzero"/></clipPath></defs><g clip-path="url(#0091ff07da)"><path fill="#f0ba45" d="M 330.046875 74.132812 L 319.066406 67.730469 C 317.019531 66.535156 314.316406 65.9375 311.617188 65.9375 C 308.914062 65.9375 306.210938 66.535156 304.164062 67.730469 L 293.183594 74.132812 C 289.085938 76.523438 285.734375 82.363281 285.734375 87.109375 L 285.734375 100.050781 C 285.734375 101.460938 286.058594 102.960938 286.578125 104.445312 L 214.609375 145.84375 C 213.644531 144.738281 212.578125 143.78125 211.441406 143.113281 L 178.84375 123.851562 C 178.148438 123.441406 177.359375 123.125 176.539062 122.855469 L 176.539062 92.628906 C 177.675781 92.332031 178.75 91.929688 179.679688 91.390625 L 190.65625 84.984375 C 194.757812 82.59375 198.109375 76.757812 198.109375 72.011719 L 198.109375 59.070312 C 198.109375 54.324219 194.757812 48.484375 190.65625 46.09375 L 179.679688 39.691406 C 177.628906 38.496094 174.925781 37.898438 172.226562 37.898438 C 169.527344 37.898438 166.824219 38.496094 164.773438 39.691406 L 153.796875 46.09375 C 149.699219 48.484375 146.34375 54.324219 146.34375 59.070312 L 146.34375 72.011719 C 146.34375 76.757812 149.699219 82.59375 153.796875 84.984375 L 164.773438 91.390625 C 165.703125 91.929688 166.777344 92.332031 167.914062 92.628906 L 167.914062 122.414062 C 166.480469 122.710938 165.128906 123.175781 163.992188 123.851562 L 131.394531 143.113281 C 127.308594 145.527344 123.964844 151.382812 123.964844 156.128906 L 123.964844 194.953125 C 123.964844 195.859375 124.121094 196.804688 124.34375 197.761719 L 108.261719 207.011719 C 107.46875 206.210938 106.621094 205.503906 105.730469 204.984375 L 94.75 198.582031 C 92.703125 197.386719 90 196.789062 87.300781 196.789062 C 84.597656 196.789062 81.894531 197.386719 79.847656 198.582031 L 68.867188 204.984375 C 64.769531 207.375 61.417969 213.214844 61.417969 217.960938 L 61.417969 230.902344 C 61.417969 235.648438 64.769531 241.484375 68.867188 243.875 L 79.847656 250.28125 C 81.894531 251.476562 84.597656 252.074219 87.300781 252.074219 C 90 252.074219 92.703125 251.476562 94.75 250.28125 L 105.730469 243.875 C 109.828125 241.484375 113.183594 235.648438 113.183594 230.902344 L 113.183594 217.960938 C 113.183594 216.832031 112.980469 215.640625 112.636719 214.449219 L 128.363281 205.40625 C 129.292969 206.441406 130.3125 207.332031 131.394531 207.96875 L 163.992188 227.230469 C 165.128906 227.90625 166.480469 228.371094 167.914062 228.667969 L 167.914062 258.453125 C 166.777344 258.75 165.703125 259.152344 164.773438 259.691406 L 153.796875 266.097656 C 149.699219 268.488281 146.34375 274.324219 146.34375 279.070312 L 146.34375 292.011719 C 146.34375 296.757812 149.699219 302.597656 153.796875 304.988281 L 164.773438 311.390625 C 166.824219 312.585938 169.527344 313.183594 172.226562 313.183594 C 174.925781 313.183594 177.628906 312.585938 179.679688 311.390625 L 190.65625 304.988281 C 194.757812 302.597656 198.109375 296.757812 198.109375 292.011719 L 198.109375 279.070312 C 198.109375 274.324219 194.757812 268.488281 190.65625 266.097656 L 179.679688 259.691406 C 178.75 259.152344 177.675781 258.75 176.539062 258.453125 L 176.539062 228.226562 C 177.359375 227.957031 178.148438 227.640625 178.84375 227.230469 L 211.441406 207.96875 C 212.328125 207.445312 213.167969 206.738281 213.957031 205.9375 L 283.914062 235.464844 C 283.714844 236.355469 283.574219 237.242188 283.574219 238.089844 L 283.574219 251.035156 C 283.574219 255.777344 286.929688 261.617188 291.027344 264.007812 L 302.007812 270.410156 C 304.054688 271.605469 306.757812 272.203125 309.457031 272.203125 C 312.160156 272.203125 314.863281 271.605469 316.910156 270.410156 L 327.890625 264.007812 C 331.988281 261.617188 335.339844 255.777344 335.339844 251.035156 L 335.339844 238.089844 C 335.339844 233.34375 331.988281 227.507812 327.890625 225.117188 L 316.910156 218.710938 C 314.863281 217.515625 312.160156 216.917969 309.457031 216.917969 C 306.757812 216.917969 304.054688 217.515625 302.007812 218.710938 L 291.027344 225.117188 C 289.90625 225.769531 288.851562 226.699219 287.890625 227.777344 L 218.335938 198.421875 C 218.671875 197.242188 218.871094 196.066406 218.871094 194.953125 L 218.871094 156.128906 C 218.871094 155.289062 218.730469 154.417969 218.539062 153.535156 L 291.347656 111.65625 C 291.941406 112.175781 292.550781 112.652344 293.183594 113.023438 L 304.164062 119.429688 C 306.210938 120.625 308.914062 121.222656 311.617188 121.222656 C 314.316406 121.222656 317.019531 120.625 319.066406 119.429688 L 330.046875 113.023438 C 334.144531 110.632812 337.5 104.796875 337.5 100.050781 L 337.5 87.109375 C 337.5 82.363281 334.144531 76.523438 330.046875 74.132812 Z M 330.046875 74.132812 " fill-opacity="1" fill-rule="nonzero"/><path fill="#f0ba45" d="M 330.046875 74.132812 L 319.066406 67.730469 C 317.019531 66.535156 314.316406 65.9375 311.617188 65.9375 C 308.914062 65.9375 306.210938 66.535156 304.164062 67.730469 L 293.183594 74.132812 C 289.085938 76.523438 285.734375 82.363281 285.734375 87.109375 L 285.734375 100.050781 C 285.734375 101.460938 286.058594 102.960938 286.578125 104.445312 L 214.609375 145.84375 C 213.644531 144.738281 212.578125 143.78125 211.441406 143.113281 L 178.84375 123.851562 C 178.148438 123.441406 177.359375 123.125 176.539062 122.855469 L 176.539062 92.628906 C 177.675781 92.332031 178.75 91.929688 179.679688 91.390625 L 190.65625 84.984375 C 194.757812 82.59375 198.109375 76.757812 198.109375 72.011719 L 198.109375 59.070312 C 198.109375 54.324219 194.757812 48.484375 190.65625 46.09375 L 179.679688 39.691406 C 177.628906 38.496094 174.925781 37.898438 172.226562 37.898438 C 169.527344 37.898438 166.824219 38.496094 164.773438 39.691406 L 153.796875 46.09375 C 149.699219 48.484375 146.34375 54.324219 146.34375 59.070312 L 146.34375 72.011719 C 146.34375 76.757812 149.699219 82.59375 153.796875 84.984375 L 164.773438 91.390625 C 165.703125 91.929688 166.777344 92.332031 167.914062 92.628906 L 167.914062 122.414062 C 166.480469 122.710938 165.128906 123.175781 163.992188 123.851562 L 131.394531 143.113281 C 127.308594 145.527344 123.964844 151.382812 123.964844 156.128906 L 123.964844 194.953125 C 123.964844 195.859375 124.121094 196.804688 124.34375 197.761719 L 108.261719 207.011719 C 107.46875 206.210938 106.621094 205.503906 105.730469 204.984375 L 94.75 198.582031 C 92.703125 197.386719 90 196.789062 87.300781 196.789062 C 84.597656 196.789062 81.894531 197.386719 79.847656 198.582031 L 68.867188 204.984375 C 64.769531 207.375 61.417969 213.214844 61.417969 217.960938 L 61.417969 230.902344 C 61.417969 235.648438 64.769531 241.484375 68.867188 243.875 L 79.847656 250.28125 C 81.894531 251.476562 84.597656 252.074219 87.300781 252.074219 C 90 252.074219 92.703125 251.476562 94.75 250.28125 L 105.730469 243.875 C 109.828125 241.484375 113.183594 235.648438 113.183594 230.902344 L 113.183594 217.960938 C 113.183594 216.832031 112.980469 215.640625 112.636719 214.449219 L 128.363281 205.40625 C 129.292969 206.441406 130.3125 207.332031 131.394531 207.96875 L 163.992188 227.230469 C 165.128906 227.90625 166.480469 228.371094 167.914062 228.667969 L 167.914062 258.453125 C 166.777344 258.75 165.703125 259.152344 164.773438 259.691406 L 153.796875 266.097656 C 149.699219 268.488281 146.34375 274.324219 146.34375 279.070312 L 146.34375 292.011719 C 146.34375 296.757812 149.699219 302.597656 153.796875 304.988281 L 164.773438 311.390625 C 166.824219 312.585938 169.527344 313.183594 172.226562 313.183594 C 174.925781 313.183594 177.628906 312.585938 179.679688 311.390625 L 190.65625 304.988281 C 194.757812 302.597656 198.109375 296.757812 198.109375 292.011719 L 198.109375 279.070312 C 198.109375 274.324219 194.757812 268.488281 190.65625 266.097656 L 179.679688 259.691406 C 178.75 259.152344 177.675781 258.75 176.539062 258.453125 L 176.539062 228.226562 C 177.359375 227.957031 178.148438 227.640625 178.84375 227.230469 L 211.441406 207.96875 C 212.328125 207.445312 213.167969 206.738281 213.957031 205.9375 L 283.914062 235.464844 C 283.714844 236.355469 283.574219 237.242188 283.574219 238.089844 L 283.574219 251.035156 C 283.574219 255.777344 286.929688 261.617188 291.027344 264.007812 L 302.007812 270.410156 C 304.054688 271.605469 306.757812 272.203125 309.457031 272.203125 C 312.160156 272.203125 314.863281 271.605469 316.910156 270.410156 L 327.890625 264.007812 C 331.988281 261.617188 335.339844 255.777344 335.339844 251.035156 L 335.339844 238.089844 C 335.339844 233.34375 331.988281 227.507812 327.890625 225.117188 L 316.910156 218.710938 C 314.863281 217.515625 312.160156 216.917969 309.457031 216.917969 C 306.757812 216.917969 304.054688 217.515625 302.007812 218.710938 L 291.027344 225.117188 C 289.90625 225.769531 288.851562 226.699219 287.890625 227.777344 L 218.335938 198.421875 C 218.671875 197.242188 218.871094 196.066406 218.871094 194.953125 L 218.871094 156.128906 C 218.871094 155.289062 218.730469 154.417969 218.539062 153.535156 L 291.347656 111.65625 C 291.941406 112.175781 292.550781 112.652344 293.183594 113.023438 L 304.164062 119.429688 C 306.210938 120.625 308.914062 121.222656 311.617188 121.222656 C 314.316406 121.222656 317.019531 120.625 319.066406 119.429688 L 330.046875 113.023438 C 334.144531 110.632812 337.5 104.796875 337.5 100.050781 L 337.5 87.109375 C 337.5 82.363281 334.144531 76.523438 330.046875 74.132812 Z M 330.046875 74.132812 " fill-opacity="1" fill-rule="nonzero"/></g></svg>